# xmcd
#
# Track frame offsets: 
#        150
#        19370
#        43335
#        52310
#        78604
#        113575
#        123142
#        137329
#        148381
#        165667
#        181699
#        197897
#
# Disc length: 2865 seconds
#
# Revision: 0
# Processed by: cddbd v1.5.2PL0 Copyright (c) Steve Scherf et al.
# Submitted via: ExactAudioCopyFreeDBPlugin 1.0
#
DISCID=ad0b2f0c
DTITLE=Jhené Aiko - Trip
DYEAR=2017
DGENRE=Hip-Hop/R&B
TTITLE0=Nobody
TTITLE1=Overstimulate
TTITLE2=Bad Trip (Interlude)
TTITLE3=Oblivion (Creation) (feat. Dr. Chill)
TTITLE4=Psilocybin (Love in Full Effect) (feat. Dr. Chill)
TTITLE5=Mystic Journey (Freestyle)
TTITLE6=Picture Perfect (Freestyle)
TTITLE7=Sing to Me (feat. Namiko Love)
TTITLE8=Frequency
TTITLE9=Ascension (feat. Brandy)
TTITLE10=Trip (feat. Mali Music)
TTITLE11=Hello Ego (feat. Chris Brown)
EXTD=
EXTT0=
EXTT1=
EXTT2=
EXTT3=
EXTT4=
EXTT5=
EXTT6=
EXTT7=
EXTT8=
EXTT9=
EXTT10=
EXTT11=
PLAYORDER=
